#!OML:ASF H:\Terrain\Patient Classification 1\Terrain2\Thursday\justin.ASF
:FULLY-SPECIFIED
:DEGREES
1051
root 9.16117 23.0596 -6.59871 -350.557 1.75628 -2.17282
lowerback 16.1952 -1.45644 2.27264
upperback 4.99661 -1.32318 4.56789
thorax -3.69071 -0.669342 3.79456
lowerneck -15.5869 -0.762039 -8.43601
upperneck 37.8627 1.20062 1.23409
head 16.0966 -0.538729 2.25147
rclavicle -2.34566e-014 -1.43125e-014
rhumerus -29.4537 -6.73928 -78.4149
rradius 36.6912
rwrist -9.53448
rhand -17.5202 10.3761
rfingers 7.12502
rthumb 8.73341 -19.4232
lclavicle -2.34566e-014 -1.43125e-014
lhumerus -33.3589 -3.56292 91.3248
lradius 33.0538
lwrist 1.89605
lhand -13.0454 20.8232
lfingers 7.12502
lthumb 13.0495 50.395
rfemur -70.7348 -7.4401 30.7579
rtibia 87.9028
rfoot -24.6951 -1.12748
rtoes 17.8516
lfemur 5.49087 -7.19818 -15.736
ltibia 7.42182
lfoot 34.2205 -2.87772
ltoes 12.2919
1052
root 9.14771 23.1668 -6.50196 -350.33 1.75116 -2.30451
lowerback 16.1728 -1.54696 2.65175
upperback 4.93059 -1.38105 4.53951
thorax -3.75534 -0.697236 3.5609
lowerneck -15.508 -0.765505 -8.31923
upperneck 37.6267 1.20202 1.07129
head 15.9595 -0.535659 2.15457
rclavicle -1.66979e-014 1.35174e-014
rhumerus -29.2787 -6.39762 -78.4527
rradius 37.3865
rwrist -9.93182
rhand -17.6206 11.4732
rfingers 7.12502
rthumb 8.63646 -18.3301
lclavicle -1.66979e-014 1.35174e-014
lhumerus -33.4022 -4.56361 91.4015
lradius 33.2408
lwrist 1.97228
lhand -12.7941 19.8272
lfingers 7.12502
lthumb 13.2916 49.3834
rfemur -69.8964 -7.23841 30.7984
rtibia 87.1278
rfoot -24.9233 -1.23964
rtoes 18.6153
lfemur 3.39785 -7.17132 -15.4979
ltibia 11.4745
lfoot 32.2967 -3.27873
ltoes 16.1162
1053
root 9.13957 23.2686 -6.4024 -350.085 1.57353 -2.1927
lowerback 16.0465 -1.58533 2.73882
upperback 4.87741 -1.42676 4.45643
thorax -3.74673 -0.719497 3.4282
lowerneck -15.4559 -0.729937 -8.16545
upperneck 37.475 1.29224 0.811143
head 15.8695 -0.507574 2.0269
rclavicle -1.47101e-014 0
rhumerus -29.2144 -5.92307 -78.4944
rradius 38.1981
rwrist -10.2983
rhand -18.2869 12.8415
rfingers 7.12502
rthumb 7.9934 -16.9873
lclavicle -1.47101e-014 0
lhumerus -33.4413 -5.14808 91.3888
lradius 33.5784
lwrist 1.74845
lhand -12.3243 19.4438
lfingers 7.12502
lthumb 13.7445 48.9698
rfemur -69.1003 -7.04824 30.578
rtibia 86.3877
rfoot -25.2057 -1.34449
rtoes 18.2197
lfemur 1.65025 -6.96258 -15.5707
ltibia 14.9421
lfoot 30.7588 -3.4511
ltoes 18.9787
1054
root 9.13637 23.3343 -6.30677 -349.918 1.29951 -1.93123
lowerback 15.836 -1.5576 2.62132
upperback 4.89753 -1.428 4.34661
thorax -3.61331 -0.720156 3.36961
lowerneck -15.4358 -0.721439 -8.32676
upperneck 37.484 1.27656 1.01232
head 15.8659 -0.509755 2.13947
rclavicle -8.34896e-015 -4.21423e-014
rhumerus -28.9991 -5.44808 -78.5038
rradius 38.8627
rwrist -10.5624
rhand -18.7237 12.608
rfingers 7.12502
rthumb 7.57181 -17.2365
lclavicle -8.34896e-015 -4.21423e-014
lhumerus -33.2805 -5.60653 91.3404
lradius 33.78
lwrist 1.40179
lhand -12.3572 18.7314
lfingers 7.12502
lthumb 13.7127 48.2596
rfemur -68.3982 -6.9096 30.3209
rtibia 85.7078
rfoot -25.366 -1.99613
rtoes 14.7767
lfemur 0.352036 -6.75452 -15.8782
ltibia 17.8157
lfoot 29.5028 -3.54083
ltoes 19.4628
1055
root 9.12595 23.4444 -6.2138 -349.856 1.30737 -2.00662
lowerback 15.753 -1.654 2.82095
upperback 4.95233 -1.52957 4.38377
thorax -3.51069 -0.770463 3.31053
lowerneck -15.4644 -0.704154 -8.61297
upperneck 37.3641 1.30252 1.25199
head 15.806 -0.502589 2.29555
rclavicle -2.82274e-014 2.78299e-014
rhumerus -28.4913 -5.03303 -78.4639
rradius 39.2698
rwrist -10.6632
rhand -18.719 11.9017
rfingers 7.12502
rthumb 7.5764 -17.9426
lclavicle -2.82274e-014 2.78299e-014
lhumerus -32.9524 -5.74094 91.2081
lradius 33.8896
lwrist 0.861834
lhand -12.1941 18.2649
lfingers 7.12502
lthumb 13.87 47.7824
rfemur -67.2799 -6.94915 30.4552
rtibia 84.7255
rfoot -25.5315 -2.47907
rtoes 12.8218
lfemur -0.829851 -6.54471 -15.7073
ltibia 20.4639
lfoot 28.4782 -4.11965
ltoes 18.5101
1056
root 9.10876 23.6053 -6.11724 -349.903 1.49219 -2.46326
lowerback 15.9043 -1.82591 3.40686
upperback 4.95161 -1.64801 4.52068
thorax -3.59868 -0.828767 3.1531
lowerneck -15.5047 -0.661782 -8.60604
upperneck 37.242 1.41177 1.12463
head 15.7502 -0.470285 2.25569
rclavicle -5.1684e-015 -1.43125e-014
rhumerus -28.141 -4.81513 -78.3941
rradius 39.728
rwrist -10.6204
rhand -19.0312 12.2953
rfingers 7.12502
rthumb 7.27501 -17.5596
lclavicle -5.1684e-015 -1.43125e-014
lhumerus -32.6454 -5.56873 90.9465
lradius 34.0201
lwrist 0.156577
lhand -11.265 18.2919
lfingers 7.12502
lthumb 14.7652 47.746
rfemur -65.6992 -6.95629 30.8709
rtibia 83.3787
rfoot -25.771 -2.46662
rtoes 13.235
lfemur -1.90479 -6.28098 -15.0421
ltibia 22.9581
lfoot 27.783 -4.56162
ltoes 18.2128
1057
root 9.09717 23.7292 -6.02284 -350.082 1.45492 -2.95461
lowerback 16.1805 -1.87663 3.96138
upperback 4.90339 -1.59874 4.6584
thorax -3.80813 -0.805686 2.98997
lowerneck -15.4716 -0.645666 -8.6052
upperneck 37.4175 1.42413 1.15269
head 15.8291 -0.468064 2.27299
rclavicle 2.34566e-014 -1.43125e-014
rhumerus -28.1211 -4.76748 -78.177
rradius 40.3221
rwrist -10.6935
rhand -19.6048 13.1075
rfingers 7.12502
rthumb 6.72135 -16.7658
lclavicle 2.34566e-014 -1.43125e-014
lhumerus -32.5221 -5.4786 90.7739
lradius 34.1215
lwrist -0.354345
lhand -10.6668 17.8211
lfingers 7.12502
lthumb 15.3415 47.232
rfemur -64.136 -6.74063 31.2934
rtibia 82.0536
rfoot -25.8626 -2.72896
rtoes 12.4095
lfemur -2.65902 -5.90045 -14.4179
ltibia 25.2288
lfoot 27.2306 -4.43323
ltoes 18.7324
1058
root 9.093 23.843 -5.92953 -350.148 1.18939 -2.96873
lowerback 16.22 -1.83023 4.01455
upperback 4.87268 -1.52479 4.67609
thorax -3.86426 -0.770045 2.96696
lowerneck -15.429 -0.65306 -8.68797
upperneck 37.5785 1.40359 1.2418
head 15.9 -0.482241 2.32549
rclavicle 3.18055e-015 -5.40694e-014
rhumerus -28.0251 -4.83638 -77.9085
rradius 40.8711
rwrist -10.8202
rhand -20.0928 13.6245
rfingers 7.12502
rthumb 6.25023 -16.2633
lclavicle 3.18055e-015 -5.40694e-014
lhumerus -32.4782 -5.5099 90.7472
lradius 34.422
lwrist -0.139452
lhand -11.3746 17.4757
lfingers 7.12502
lthumb 14.6596 46.9374
rfemur -62.832 -6.4987 31.1658
rtibia 80.8124
rfoot -25.8366 -2.79715
rtoes 11.6789
lfemur -3.51126 -5.47847 -14.4246
ltibia 27.4932
lfoot 26.6061 -4.52989
ltoes 16.3396
1059
root 9.0909 23.9545 -5.83401 -350.07 0.998945 -2.9311
lowerback 16.051 -1.85035 4.02941
upperback 4.83513 -1.55852 4.70531
thorax -3.81262 -0.786983 2.99062
lowerneck -15.4571 -0.637726 -8.85598
upperneck 37.6328 1.49144 1.22558
head 15.9304 -0.475053 2.3643
rclavicle 3.57812e-015 -3.73715e-014
rhumerus -27.8423 -4.84645 -77.6911
rradius 41.3766
rwrist -10.7749
rhand -20.6047 13.6206
rfingers 7.12502
rthumb 5.75602 -16.2812
lclavicle 3.57812e-015 -3.73715e-014
lhumerus -32.3476 -5.09619 90.6262
lradius 34.791
lwrist 0.244137
lhand -12.4859 17.6854
lfingers 7.12502
lthumb 13.5887 47.2219
rfemur -61.7688 -6.35474 30.9931
rtibia 79.6835
rfoot -25.8231 -2.72375
rtoes 11.4255
lfemur -4.66689 -5.08074 -14.4816
ltibia 29.9936
lfoot 25.8896 -4.68131
ltoes 12.8894
1060
root 9.08318 24.0653 -5.73712 -350.086 0.980494 -3.19066
lowerback 15.9789 -1.91094 4.31813
upperback 4.75761 -1.58768 4.82334
thorax -3.85905 -0.802624 2.95865
lowerneck -15.3211 -0.618452 -8.96404
upperneck 37.6419 1.57241 1.13808
head 15.9001 -0.468934 2.35783
rclavicle 1.35174e-014 4.53229e-014
rhumerus -27.7477 -4.77955 -77.4517
rradius 41.7968
rwrist -10.6955
rhand -21.2359 13.2333
rfingers 7.12502
rthumb 5.14653 -16.6842
lclavicle 1.35174e-014 4.53229e-014
lhumerus -32.2302 -4.43272 90.4077
lradius 34.9868
lwrist 0.391525
lhand -13.6759 17.5324
lfingers 7.12502
lthumb 12.4416 47.1421
rfemur -60.5705 -6.26701 31.1676
rtibia 78.5521
rfoot -25.8419 -2.6883
rtoes 11.2931
lfemur -5.77204 -4.59973 -14.1354
ltibia 32.5452
lfoot 25.0996 -4.90243
ltoes 10.6724
1061
root 9.07365 24.168 -5.64266 -350.311 0.942409 -3.2983
lowerback 16.0666 -1.94782 4.46894
upperback 4.73803 -1.60337 4.83779
thorax -3.92965 -0.811097 2.89633
lowerneck -15.1582 -0.572019 -8.76391
upperneck 37.6078 1.65553 0.875097
head 15.8444 -0.440352 2.22055
rclavicle -7.95139e-016 2.38542e-015
rhumerus -27.6048 -4.89986 -77.2563
rradius 42.1618
rwrist -10.7185
rhand -21.7123 12.8699
rfingers 7.12502
rthumb 4.68653 -17.0583
lclavicle -7.95139e-016 2.38542e-015
lhumerus -32.0746 -3.75391 90.067
lradius 35.1082
lwrist 0.458411
lhand -14.5938 16.9854
lfingers 7.12502
lthumb 11.5565 46.6468
rfemur -59.1718 -6.27946 31.1865
rtibia 77.4678
rfoot -25.807 -2.65807
rtoes 10.4833
lfemur -6.60916 -4.05331 -13.9774
ltibia 35.1018
lfoot 24.2012 -5.3899
ltoes 7.38061
